<svg id="icons_optimized" width="60" height="60" version="1.1" viewBox="0 0 60 60" xmlns="http://www.w3.org/2000/svg">
	<g id="logo">
		<path d="m33 5v50h10v-50zm3 3h4v20h-4zm-31 20v17h17v3h-17v7h24v-17h-17v-3h17v-7zm42.223 11.223-2.8301 2.8281 4.9512 4.9492-4.9512 4.9492 2.8301 2.8281c2.5927-2.5927 5.1846-5.1846 7.7773-7.7773-2.5927-2.5927-5.1846-5.1846-7.7773-7.7773z"/>
	</g>
	<g id="lower_greater_slash">
		<path d="m17 13-17 17 17 17v-8l-9-9 9-9zm17-3-14 40h6l14-40zm9 3v8l9 9-9 9v8l17-17z"/>
	</g>
	<g id="beetle">
		<path d="m46.958 13.024c-6.6167-6.6167-15.785-6.5621-23.166-1.6158l-2.2898-6.8694-6.364-2.1213-1.4142 4.2426 4.2426 1.4142 2.1213 6.364s1.4142 7.0711 9.8995 15.556c8.4853 8.4853 15.556 9.8995 15.556 9.8995l6.364 2.1213 1.4142 4.2426 4.2426-1.4142-2.1213-6.364-6.8694-2.2898c4.9463-7.3808 5.0009-16.549-1.6158-23.166zm-7.7782 2.1213a2 2 0 0 1 0 2.8284 2 2 0 0 1-2.8284 0 2 2 0 0 1 0-2.8284 2 2 0 0 1 2.8284 0zm5.6569 5.6569a2 2 0 0 1 0 2.8284 2 2 0 0 1-2.8284 0 2 2 0 0 1 0-2.8284 2 2 0 0 1 2.8284 0zm-28.284-11.314-6.364-2.1213-1.4142 4.2426 4.2426 1.4142 2.1213 6.364-0.70711 0.70711c-0.24284 0.24284-0.463 0.49622-0.69468 0.7444l-2.1338-6.4013-6.364-2.1213-1.4142 4.2426 4.2426 1.4142 2.3837 7.1512c-4.2361 6.9307-4.339 14.925 1.8838 21.108l15.531-15.531c-5.2137-5.2137-7.5355-10.055-8.5212-12.717l0.03591-0.01105-0.70711-2.1213zm33.941 33.941-8.4853-2.8284-0.01105 0.03591c-2.6617-0.98572-7.5031-3.3075-12.717-8.5212l-15.52 15.52c6.1743 6.2316 14.167 6.1306 21.097 1.8948l7.1512 2.3837 1.4142 4.2426 4.2426-1.4142-2.1213-6.364-6.4012-2.1338c0.24818-0.23168 0.50156-0.45184 0.7444-0.69468l0.70711-0.70711 6.364 2.1213 1.4142 4.2426 4.2426-1.4142z"/>
	</g>
	<g id="gear">
		<path d="m23.361 2.8281a28 28 0 0 0-7.8828 3.2617 9 7 45 0 1-0.32812 9.0566 9 7 45 0 1-9.0508 0.33398 28 28 0 0 0-3.2656 7.8809 9 7 0 0 1 6.1641 6.6328 9 7 0 0 1-6.1699 6.6387 28 28 0 0 0 3.2578 7.8809 7 9 45 0 1 4.6035-1.3691 7 9 45 0 1 4.4551 1.6992 7 9 45 0 1 0.33203 9.0547 28 28 0 0 0 7.8809 3.2676 7 9 0 0 1 6.6348-6.1699 7 9 0 0 1 6.6406 6.1758 28 28 0 0 0 7.8848-3.2598 9 7 45 0 1 0.32422-9.0625 9 7 45 0 1 4.6855-1.6934 9 7 45 0 1 4.373 1.3633 28 28 0 0 0 3.2676-7.8809 9 7 0 0 1-6.1738-6.6367 9 7 0 0 1 6.1777-6.6406 28 28 0 0 0-3.2637-7.8828 7 9 45 0 1-9.0605-0.32617 7 9 45 0 1-0.33203-9.0566 28 28 0 0 0-7.8809-3.2637 7 9 0 0 1-6.6348 6.168 7 9 0 0 1-6.6387-6.1719zm6.6387 12.172a15 15 0 0 1 15 15 15 15 0 0 1-15 15 15 15 0 0 1-15-15 15 15 0 0 1 15-15z"/>
	</g>
	<g id="palette">
		<path d="m12.322 12.322c-11.716 11.716-13.299 29.128-3.5355 38.891 9.7631 9.7631 27.577 7.7782 38.184-2.8284 5.6569-5.6569-7.7782-4.9497-7.0711-11.314s21.077-18.521 11.314-28.284c-9.7631-9.7631-27.175-8.1802-38.891 3.5355zm4.2426 4.2426a4 4 0 0 1 5.6569 0 4 4 0 0 1 0 5.6569 4 4 0 0 1-5.6569 0 4 4 0 0 1 0-5.6569zm-6.364 12.021a4 4 0 0 1 5.6569 0 4 4 0 0 1 0 5.6569 4 4 0 0 1-5.6569 0 4 4 0 0 1 0-5.6569zm19.092-19.092a4 4 0 0 1 5.6569 0 4 4 0 0 1 0 5.6569 4 4 0 0 1-5.6569 0 4 4 0 0 1 0-5.6569zm-16.263 31.82a4 4 0 0 1 5.6569 0 4 4 0 0 1 0 5.6569 4 4 0 0 1-5.6569 0 4 4 0 0 1 0-5.6569z"/>
	</g>
	<g id="box_pen">
		<path d="m0 5v40h36.514l13.941 13.941 8.4863-8.4863-8.9414-8.9414v-36.514zm3 3h44v30.514l-9.9785-9.9785-8.4863 8.4863 4.9785 4.9785h-30.514zm22 17 0.70703 9.1934 2.1211 2.1211 8.4863-8.4863-2.1211-2.1211zm12.021 6.3633 19.092 19.092-1.4141 1.4141-19.092-19.092z"/>
	</g>
	<g id="box_sel">
		<path d="m0 5v40h23.5v9.2578l-2.0352-2.0352c-0.35355-0.35355-0.7513-0.48694-1.127-0.46484-1.127 0.06629-2.0548 1.5253-0.99414 2.5859l5.6562 5.6562 5.6562-5.6562c1.4142-1.4142-0.70688-3.5353-2.1211-2.1211l-2.0352 2.0352v-9.2578h23.5v-18.5h4.2578l-2.0352 2.0352c-1.4142 1.4142 0.70688 3.5353 2.1211 2.1211l3.5312-3.5312 0.0039 2e-3 2.1211-2.1211-0.0039-2e-3 0.0039-0.003859-2.1211-2.1211-0.0039 0.0039-3.5312-3.5332c-0.35355-0.35355-0.7513-0.48694-1.127-0.46484-1.127 0.06629-2.0548 1.5253-0.99414 2.5859l2.0273 2.0293h-4.25v-18.5zm3 3h44v15.5h-23.5v18.5h-20.5zm23.5 18.5h20.5v15.5h-20.5zm28.5 6.5v5h3v-5zm0 8v5h3v-5zm0 8v5h-5v3h8v-8zm-21 5v3h5v-3zm8 0v3h5v-3z"/>
	</g>
	<g id="rocket">
		<path d="m53.805 6.1953c-2.1213-2.1213-21.44 3.0549-30.406 12.021-2.322 2.322-3.9124 4.4729-4.9235 6.4786-2.495-0.6784-4.7971 0.41358-7.0973 2.7138l-5.6569 5.6569 0.70711 4.9498 4.9497 0.7071 6.0657-6.0656c0.28671 1.0248 0.72962 2.0021 1.3079 2.9348l-5.2522 5.2522 0.70711 4.9498 4.9497 0.70711 5.2522-5.2522c0.93267 0.57824 1.91 1.0212 2.9348 1.3079l-6.0657 6.0657 0.70711 4.9497 4.9497 0.70711 5.6569-5.6568c2.3002-2.3002 3.3922-4.6024 2.7138-7.0973 2.0057-1.0111 4.1566-2.6015 6.4786-4.9235 8.9659-8.9659 14.142-28.284 12.021-30.406zm-9.8995 9.8995a4 4 0 0 1 0 5.6568 4 4 0 0 1-5.6569 0 4 4 0 0 1 0-5.6568 4 4 0 0 1 5.6569 0zm-8.4853 8.4853a4 4 0 0 1 0 5.6568 4 4 0 0 1-5.6569 0 4 4 0 0 1 0-5.6568 4 4 0 0 1 5.6569 0z"/>
	</g>
</svg>
